<svg id="Layer_1" data-name="Layer 1" xmlns="http://www.w3.org/2000/svg" viewBox="0 0 255 326"><defs><style>.cls-2{fill:#eaeaea}</style></defs><path d="M47.91 99S14.79 41.34 91.29 37C197 31 222.41 118 251 112c0 0-16.76 7-19.72 5 0 0-1 7 9.86 11 0 0-27.61 8-39.44 0S47.91 99 47.91 99z" fill="#ffb973"/><path class="cls-2" d="M107.79 323.52l8.89-31.76-22.74 1.83 13.85 29.93zM18.65 264.84l19.23-26.8-22-6.06 2.77 32.86zM205 300.23l-10.39-31.3-17.83 14.23L205 300.23z"/><circle cx="123.5" cy="180.5" r="119.5" fill="#fff"/><ellipse cx="59.71" cy="156.14" rx="2.72" ry="9.12" transform="rotate(-8.1 60.112 157.437)"/><ellipse cx="125.66" cy="146.9" rx="2.72" ry="9.12" transform="rotate(-8.11 125.749 146.998)"/><path d="M51.35 85.25S79.79 96.49 91 66.76L41.16 2.26z" fill="#c9c9c9"/><path class="cls-2" d="M211.72 204.54l-18.81-35.94-6.13 22.13 24.94 13.81z"/><path d="M88.5 187.35s14.79 25.73 22.26-4.95" fill="none" stroke="#000" stroke-miterlimit="10" stroke-width="3"/></svg>