<svg xmlns="http://www.w3.org/2000/svg" viewBox="0 0 1000 1000"><path fill="#968cad" d="M975.4 320.4L518.1 15.5c-11-7.3-25.3-7.3-36.2 0L24.5 320.4c-9.1 6-14.5 16.3-14.5 27.2v304.9c0 10.9 5.5 21.1 14.5 27.2l457.3 304.9c5.5 3.7 11.8 5.5 18.1 5.5 6.3 0 12.6-1.8 18.1-5.5l457.3-304.9c9.1-6 14.5-16.3 14.5-27.2V347.6c.2-10.9-5.3-21.2-14.4-27.2zM500 613.2L330.2 500 500 386.8 669.7 500 500 613.2zm32.6-283.1V103.7l365.8 243.9-169.8 113.2-196-130.7zm-65.3 0l-196 130.7-169.8-113.2 365.8-243.9v226.4zM212.4 500L75.3 591.4V408.6L212.4 500zm58.9 39.3l196 130.7v226.4L101.5 652.5l169.8-113.2zm261.3 130.6l196-130.7 169.8 113.2-365.8 243.9V669.9zM787.5 500l137.1-91.4v182.8L787.5 500z"/></svg>